<svg xmlns="http://www.w3.org/2000/svg" width="96" height="96" viewBox="0 0 96 96">
  <g transform="rotate(-8 48 48)">
    <!-- toes -->
    <g fill="#FF8A3D" stroke="#3A2A1E" stroke-width="3" stroke-linejoin="round">
      <ellipse cx="26" cy="36" rx="9" ry="11"/>
      <ellipse cx="44" cy="25" rx="9" ry="11"/>
      <ellipse cx="62" cy="25" rx="9" ry="11"/>
      <ellipse cx="78" cy="36" rx="9" ry="11"/>
      <path d="M52 42c-14 0-24 12-24 24 0 8 6 13 13 13 5 0 8-2 11-2s6 2 11 2c7 0 13-5 13-13 0-12-10-24-24-24z"/>
    </g>
    <!-- white highlights -->
    <g fill="#FFFFFF" opacity="0.85">
      <ellipse cx="23.5" cy="32.5" rx="2.6" ry="3.4"/>
      <ellipse cx="41.5" cy="21.5" rx="2.6" ry="3.4"/>
      <ellipse cx="59.5" cy="21.5" rx="2.6" ry="3.4"/>
      <ellipse cx="75.5" cy="32.5" rx="2.6" ry="3.4"/>
      <ellipse cx="42" cy="56" rx="5" ry="3.4" transform="rotate(-18 42 56)"/>
    </g>
  </g>
</svg>
